<svg width="23" height="25" viewBox="0 0 23 25"  xmlns="http://www.w3.org/2000/svg">
<path d="M22.75 5.83042C22.75 5.82376 22.7475 5.81792 22.7471 5.81126C22.7454 5.78042 22.7417 5.75042 22.7337 5.72126C22.73 5.70876 22.7242 5.69751 22.7192 5.68542C22.7104 5.66292 22.7021 5.64126 22.6896 5.62084C22.6821 5.60834 22.6725 5.59751 22.6642 5.58626C22.6508 5.56834 22.6371 5.55084 22.6213 5.53542C22.6104 5.52501 22.5979 5.51584 22.5858 5.50667C22.5746 5.49792 22.565 5.48751 22.5529 5.47959C22.5458 5.47542 22.5379 5.47334 22.5308 5.46959C22.525 5.46626 22.5204 5.46126 22.5142 5.45834L11.2642 0.0416723C11.1458 -0.015411 11.0079 -0.0133277 10.8912 0.0475057L0.474583 5.46417C0.47 5.46667 0.467083 5.47042 0.4625 5.47292C0.457917 5.47542 0.4525 5.47667 0.4475 5.47959C0.433333 5.48834 0.4225 5.50001 0.409583 5.51042C0.3975 5.52001 0.384583 5.52876 0.373333 5.53959C0.3575 5.55542 0.345 5.57292 0.332083 5.59084C0.32375 5.60251 0.31375 5.61292 0.306667 5.62542C0.29375 5.64751 0.285 5.67126 0.276667 5.69542C0.272917 5.70584 0.2675 5.71501 0.264583 5.72584C0.255417 5.76001 0.25 5.79626 0.25 5.83334V19.1667C0.25 19.3246 0.339167 19.4688 0.480417 19.5396L11.3137 24.9563C11.32 24.9592 11.3267 24.9579 11.3329 24.9608C11.3867 24.9842 11.4425 25 11.5 25C11.5575 25 11.6137 24.9842 11.6671 24.9604C11.6733 24.9575 11.6804 24.9588 11.6862 24.9558L22.5196 19.5392C22.6608 19.4688 22.75 19.3246 22.75 19.1667V5.83334C22.75 5.83292 22.75 5.83251 22.75 5.83167C22.75 5.83126 22.75 5.83084 22.75 5.83042ZM11.0904 0.882506L21.3875 5.84042L11.5 10.7842L1.58375 5.82626L11.0904 0.882506ZM1.08333 6.50751L11.0833 11.5075V23.9092L1.08333 18.9092V6.50751ZM21.9167 18.9092L11.9167 23.9092V11.5075L21.9167 6.50751V18.9092Z" />
</svg>
