<svg width="25" height="26" viewBox="0 0 25 26"  xmlns="http://www.w3.org/2000/svg">
<path d="M12.5 18.4968C12.2917 18.4968 12.0964 18.4634 11.9141 18.3967C11.7318 18.3309 11.5625 18.2186 11.4062 18.0596L5.78125 12.3353C5.49479 12.0437 5.35156 11.6727 5.35156 11.2222C5.35156 10.7717 5.49479 10.4007 5.78125 10.1091C6.06771 9.81763 6.43854 9.66498 6.89375 9.6512C7.35 9.63848 7.72135 9.77787 8.00781 10.0694L10.9375 13.0508V1.6817C10.9375 1.23117 11.0875 0.853264 11.3875 0.547968C11.6865 0.243732 12.0573 0.0916138 12.5 0.0916138C12.9427 0.0916138 13.3141 0.243732 13.6141 0.547968C13.913 0.853264 14.0625 1.23117 14.0625 1.6817V13.0508L16.9922 10.0694C17.2786 9.77787 17.65 9.63848 18.1063 9.6512C18.5615 9.66498 18.9323 9.81763 19.2187 10.1091C19.5052 10.4007 19.6484 10.7717 19.6484 11.2222C19.6484 11.6727 19.5052 12.0437 19.2187 12.3353L13.5938 18.0596C13.4375 18.2186 13.2682 18.3309 13.0859 18.3967C12.9036 18.4634 12.7083 18.4968 12.5 18.4968ZM3.125 25.533C2.26562 25.533 1.53021 25.2218 0.91875 24.5996C0.30625 23.9763 0 23.2273 0 22.3528V19.1726C0 18.7221 0.149479 18.3442 0.448438 18.0389C0.748438 17.7347 1.11979 17.5825 1.5625 17.5825C2.00521 17.5825 2.37656 17.7347 2.67656 18.0389C2.97552 18.3442 3.125 18.7221 3.125 19.1726V22.3528H21.875V19.1726C21.875 18.7221 22.025 18.3442 22.325 18.0389C22.624 17.7347 22.9948 17.5825 23.4375 17.5825C23.8802 17.5825 24.251 17.7347 24.55 18.0389C24.85 18.3442 25 18.7221 25 19.1726V22.3528C25 23.2273 24.6943 23.9763 24.0828 24.5996C23.4703 25.2218 22.7344 25.533 21.875 25.533H3.125Z" />
</svg>
