<svg xmlns="http://www.w3.org/2000/svg" width="500" height="500" viewBox="0 0 500 500">
  <path fill="white" class="a" d="M218.44,368.41c8-21.4,21.67-37.6,34-55-12.3,8.78-24.69,17.43-36.78,26.48-1.51,1.13-1.83,4.38-2,6.7-.67,9.79-1.07,19.6-1.59,29.72H153.05c0-11.87-.1-23.67.12-35.46,0-1.51,1.59-3.12,2.69-4.47,6.78-8.37,13.52-16.78,20.56-24.92,1.57-1.81,4.17-3,6.53-3.8,8.67-2.91,17.83-4.68,26.09-8.44,13.87-6.32,20-19.41,17.85-35-2-14.28-13-26.7-27.16-28.88a172.89,172.89,0,0,0-30.8-2.25c-33.61.9-62.95-10.57-89.37-30.22-25.73-19.13-50.95-38.92-76.4-58.41-1-.78-2.11-1.48-3.16-2.22l.82-1.81h7c47.81,0,95.61.12,143.41-.13,6,0,8,1.72,8.74,7.66,2.3,17.49,5.37,34.87,9.1,52.23V136.5H193c2.92,18.18,5.83,36.24,8.73,54.31l1,0v-67H500.15v21H263.4v1l186.07,9.07.3.94a28.78,28.78,0,0,1-3.58,1.44c-32.68,8.54-62.45,22.32-85.68,47.73-11.87,13-21.3,27.68-22.93,45.5-3.53,38.61,12.05,51.34,41.29,55.45,11.52,1.62,18.18,7.26,25.67,15.14,12,12.63,17.68,26.27,15.06,43.48-.56,3.69-.08,7.53-.08,11.77H364.16c-.52-10.46-1-20.72-1.61-31-.12-1.86-.51-4.45-1.75-5.37-12.15-9-24.51-17.64-37.2-26,12.41,16.95,26.19,32.85,34.28,54.31-22.23-14.19-45.57-17.81-69.83-17.68S240.39,353.89,218.44,368.41Z"/>
</svg>
