<svg width="30" height="27" viewBox="0 0 30 27"  xmlns="http://www.w3.org/2000/svg">
<path d="M20.6813 13.9607L18.6721 11.9515C18.8799 10.8661 18.5681 9.84988 17.7367 8.903C16.9053 7.95612 15.8314 7.58661 14.515 7.79446L12.5058 5.78522C12.8984 5.60046 13.2965 5.46189 13.7002 5.36951C14.1048 5.27714 14.5381 5.23095 15 5.23095C16.7321 5.23095 18.2046 5.83695 19.4175 7.04896C20.6296 8.26189 21.2356 9.73441 21.2356 11.4665C21.2356 11.9284 21.1894 12.3617 21.097 12.7663C21.0046 13.17 20.866 13.5681 20.6813 13.9607ZM25.1155 18.3256L23.1062 16.3857C23.9838 15.7159 24.7635 14.9824 25.4453 14.1852C26.1261 13.3889 26.709 12.4827 27.194 11.4665C26.0393 9.13395 24.382 7.28037 22.2222 5.90577C20.0633 4.5321 17.6559 3.84527 15 3.84527C14.3303 3.84527 13.6721 3.89145 13.0254 3.98383C12.3788 4.07621 11.7436 4.21478 11.1201 4.39954L8.97229 2.25173C9.91917 1.85912 10.8891 1.56443 11.8822 1.36767C12.8753 1.17182 13.9145 1.0739 15 1.0739C18.3025 1.0739 21.2702 1.9455 23.903 3.68868C26.5358 5.43279 28.5104 7.70208 29.8268 10.4965C29.8961 10.612 29.9423 10.7561 29.9654 10.9289C29.9884 11.1025 30 11.2818 30 11.4665C30 11.6513 29.9829 11.83 29.9487 12.0028C29.9136 12.1764 29.873 12.321 29.8268 12.4365C29.2956 13.6143 28.6319 14.6998 27.8356 15.6928C27.0383 16.6859 26.1316 17.5635 25.1155 18.3256ZM24.8383 25.8776L19.9885 21.097C19.1801 21.351 18.3663 21.5418 17.5469 21.6693C16.7266 21.7958 15.8776 21.8591 15 21.8591C11.6975 21.8591 8.72979 20.9875 6.097 19.2443C3.4642 17.5002 1.48961 15.2309 0.17321 12.4365C0.103926 12.321 0.0577368 12.1764 0.0346422 12.0028C0.0115475 11.83 0 11.6513 0 11.4665C0 11.2818 0.0115475 11.1085 0.0346422 10.9469C0.0577368 10.7852 0.103926 10.6467 0.17321 10.5312C0.658199 9.49192 1.23557 8.53349 1.90531 7.65589C2.57506 6.77829 3.31409 5.96998 4.1224 5.23095L1.24711 2.32102C0.993072 2.06697 0.866051 1.74919 0.866051 1.36767C0.866051 0.987067 1.00462 0.658199 1.28175 0.381062C1.5358 0.127021 1.85912 0 2.25173 0C2.64434 0 2.96767 0.127021 3.22171 0.381062L26.7783 23.9376C27.0323 24.1917 27.1654 24.5095 27.1774 24.891C27.1885 25.2716 27.0554 25.6005 26.7783 25.8776C26.5242 26.1316 26.2009 26.2587 25.8083 26.2587C25.4157 26.2587 25.0924 26.1316 24.8383 25.8776ZM6.06236 7.1709C5.39261 7.77136 4.7806 8.42956 4.22633 9.1455C3.67205 9.86143 3.19861 10.6351 2.806 11.4665C3.96074 13.7991 5.61755 15.6522 7.77644 17.0259C9.93626 18.4005 12.3441 19.0878 15 19.0878C15.4619 19.0878 15.9122 19.0591 16.351 19.0018C16.7898 18.9436 17.2402 18.8799 17.7021 18.8106L16.455 17.4942C16.2009 17.5635 15.9584 17.6152 15.7275 17.6494C15.4965 17.6845 15.254 17.7021 15 17.7021C13.2679 17.7021 11.7954 17.0961 10.5824 15.8841C9.37044 14.6711 8.76443 13.1986 8.76443 11.4665C8.76443 11.2125 8.78152 10.97 8.8157 10.739C8.85081 10.5081 8.903 10.2656 8.97229 10.0115L6.06236 7.1709Z" />
</svg>
