<svg xmlns="http://www.w3.org/2000/svg" width="500" height="500" viewBox="0 0 500 500">
  <path fill="white" d="M461.26,294.44c-.65,2.78-.88,5.12-1.75,7.19-4.77,11.25-8.75,23-14.77,33.53-16.85,29.52-40.07,52.81-70.95,67.95-22.87,11.21-47.09,15.21-72.42,14.08-10-.44-17.4,6.69-17.75,15.78-.42,11,5.9,18.55,16.59,19.1,30,1.52,58.83-3.46,86-16.37,47.3-22.45,80.18-58.92,100.32-106.57,6.32-14.93,9.41-31.32,13-47.26,2.45-10.89-5.43-21.13-15.25-21.66-9.09-.49-18.19-.91-27.29-1.33a219.66,219.66,0,0,1-69.25-14.06c-44.19-17-73.57-48-88.84-92.74-9.53-27.93-11.8-56.62-11.1-85.81.32-13.31-9.64-21-22.48-17.93-37.9,9-71.7,26.59-102.17,50.38-20.48,16-38.43,34.48-49.61,58.54-4.8,10.34-2.73,19.28,6,24,8.95,4.84,18.85,1.87,24.46-7.43,2.16-3.58,3.9-7.41,6.15-10.91,16-24.93,38.94-42.24,64.21-56.63,12-6.81,24.69-12.29,37.68-18.67C258.07,219,338.78,289,461.26,294.44Zm-216.15-55.2H15a15,15,0,0,1-15-15v-4.36a15,15,0,0,1,15-15H245.11a15,15,0,0,1,15,15v4.36A15,15,0,0,1,245.11,239.24Zm71.59,85.81H86.58a15,15,0,0,1-15-15v-4.36a15,15,0,0,1,15-15H316.7a15,15,0,0,1,15,15v4.36A15,15,0,0,1,316.7,325.05Zm-71.59,85.44H15a15,15,0,0,1-15-15v-4.36a15,15,0,0,1,15-15H245.11a15,15,0,0,1,15,15v4.36A15,15,0,0,1,245.11,410.49Z"/>
</svg>
