<svg xmlns="http://www.w3.org/2000/svg" width="500" height="500" viewBox="0 0 500 500">
  <path fill="white" class="a" d="M313.1,476.93c-2.06-13.8-2.06-13.8,10.28-13.8h114V451.72H363.51C360.67,439.09,361.45,438,373,438q54.34,0,108.71,0c3.85,0,6.82.05,6.8-5.43,0-5.17-2.49-5.77-6.6-5.72-12,.12-24,0-36,.08-4.82,0-8.33,0-8.34-6.82,0-6.56,2.87-7,8-7,15.12.23,30.24.11,45.35.06,3,0,6.07-.29,9.09-.44V402c-9.83,0-19.13,0-28.44,0-8.69,0-8.72,0-8.45-9a46,46,0,0,1,.74-5H500V376.46H347.19c21.4-17.08,39.06-36.43,50.93-61.84C335.28,337,278.35,328.74,231.29,281.74S176,177.52,198.43,114.51c-38.54,19.48-65.94,48.2-78.09,88.62-21.19,70.5.7,127.84,59.52,173.8H0v11.54H36.21C38.12,402,38.12,402,25.76,402H0V413.3H7.75c15.56,0,31.12.15,46.68-.08,5.16-.08,8,.41,8,7,0,6.84-3.53,6.86-8.34,6.82-12.22-.11-24.45.07-36.68-.08-4.2-.05-5.79,1.32-5.9,5.76-.14,5.55,3.08,5.37,6.85,5.37q55.36,0,110.72,0c8.55,0,9,.53,8.45,9.13-.09,1.29-.46,2.57-.84,4.61H62.79v11.35H178c10,0,10,0,9.61,9.78a23.75,23.75,0,0,1-.78,3.78l-10.77.66v10.54H323.92v-11Zm161.82-114.4c.16-2.39.39-4.14.39-5.88,0-60.47.17-120.94-.09-181.41-.12-27.77-12.6-49.38-36.22-63.54Q364.14,66.82,288.55,23.16c-25.79-15-52.12-14.63-77.85.38Q136.45,66.85,62.54,110.71c-24.84,14.77-37.84,36.82-37.86,66q-.06,89.37,0,178.74c0,2.35.28,4.69.42,7H48.26v-8.25c0-57.58.24-115.17-.12-172.74-.14-23.62,9.43-40.53,30-52.39C125,102,171.85,74.66,218.22,46.63c21.52-13,41.57-13.21,63.1-.26,47,28.26,94.41,55.88,141.82,83.49,19.27,11.22,28.68,27.52,28.63,49.76q-.18,87.38,0,174.74v8.17ZM373.87,244.32c12.51,2.17,19,9.85,22,21.7,2.48-12.44,9.74-19.12,21.91-22.19-13.09-1.73-18.85-9.92-22.2-21.37C393.15,234.84,385.56,241.18,373.87,244.32ZM246.12,167.46c-8.21-.17-12.09-7.1-15.12-15.4-2,9.22-7.6,14.22-16.53,16.86,9.8,1.57,13.82,8.08,15.65,14.62Zm61.36,105.62c1-7.5,7-12.41,15.64-15.5-9.95-1.58-13.93-8.28-16.8-16.66-1.79,9.2-7.28,14.48-14,16Zm-242.95,57c9.83,1.82,14.07,8.29,16.76,17,1.51-9.67,7.6-14.39,16.32-17.26-9.5-2.13-14.2-8.16-16.55-17C78.82,321.67,74.13,327.71,64.53,330.09Zm177.7-249.3c-3.2,3.14-7,6.87-9.92,9.72,3.23,3.25,7,7,9.87,9.9l10.34-9.8Zm39.18,137c3.11-3.12,6.89-6.89,9.82-9.82l-9.72-10-9.95,9.88Zm75.51-72.67-9.8,9.72,9.6,10.05,10-10ZM91.67,181.34l-10-9.83-10.09,9.84,10,9.85Z"/>
</svg>
