<svg width="25" height="26" viewBox="0 0 25 26"  xmlns="http://www.w3.org/2000/svg">
<path d="M16.875 11.5579C17.4167 11.5579 17.8646 11.3776 18.2188 11.0172C18.5729 10.6568 18.75 10.201 18.75 9.64976C18.75 9.09853 18.5729 8.6427 18.2188 8.28228C17.8646 7.92186 17.4167 7.74166 16.875 7.74166C16.3333 7.74166 15.8854 7.92186 15.5312 8.28228C15.1771 8.6427 15 9.09853 15 9.64976C15 10.201 15.1771 10.6568 15.5312 11.0172C15.8854 11.3776 16.3333 11.5579 16.875 11.5579ZM8.125 11.5579C8.66667 11.5579 9.11458 11.3776 9.46875 11.0172C9.82292 10.6568 10 10.201 10 9.64976C10 9.09853 9.82292 8.6427 9.46875 8.28228C9.11458 7.92186 8.66667 7.74166 8.125 7.74166C7.58333 7.74166 7.13542 7.92186 6.78125 8.28228C6.42708 8.6427 6.25 9.09853 6.25 9.64976C6.25 10.201 6.42708 10.6568 6.78125 11.0172C7.13542 11.3776 7.58333 11.5579 8.125 11.5579ZM12.5 19.8263C13.7917 19.8263 14.9479 19.5083 15.9688 18.8722C16.9896 18.2362 17.8021 17.3988 18.4062 16.3599C18.5521 16.1055 18.5625 15.8778 18.4375 15.6768C18.3125 15.475 18.1042 15.3741 17.8125 15.3741H7.1875C6.89583 15.3741 6.6875 15.475 6.5625 15.6768C6.4375 15.8778 6.44792 16.1055 6.59375 16.3599C7.19792 17.3988 8.01042 18.2362 9.03125 18.8722C10.0521 19.5083 11.2083 19.8263 12.5 19.8263ZM12.5 25.5506C10.7708 25.5506 9.14583 25.2165 7.625 24.5482C6.10417 23.8808 4.78125 22.9747 3.65625 21.8298C2.53125 20.6849 1.64083 19.3387 0.985 17.791C0.328333 16.2433 0 14.5896 0 12.8299C0 11.0702 0.328333 9.41654 0.985 7.86886C1.64083 6.32118 2.53125 4.97491 3.65625 3.83005C4.78125 2.68519 6.10417 1.77863 7.625 1.11037C9.14583 0.442958 10.7708 0.109253 12.5 0.109253C14.2292 0.109253 15.8542 0.442958 17.375 1.11037C18.8958 1.77863 20.2188 2.68519 21.3438 3.83005C22.4688 4.97491 23.3592 6.32118 24.015 7.86886C24.6717 9.41654 25 11.0702 25 12.8299C25 14.5896 24.6717 16.2433 24.015 17.791C23.3592 19.3387 22.4688 20.6849 21.3438 21.8298C20.2188 22.9747 18.8958 23.8808 17.375 24.5482C15.8542 25.2165 14.2292 25.5506 12.5 25.5506ZM12.5 23.0065C15.2708 23.0065 17.6304 22.0155 19.5788 20.0336C21.5263 18.0509 22.5 15.6497 22.5 12.8299C22.5 10.0102 21.5263 7.60894 19.5788 5.62621C17.6304 3.64433 15.2708 2.65339 12.5 2.65339C9.72917 2.65339 7.37 3.64433 5.4225 5.62621C3.47417 7.60894 2.5 10.0102 2.5 12.8299C2.5 15.6497 3.47417 18.0509 5.4225 20.0336C7.37 22.0155 9.72917 23.0065 12.5 23.0065Z" />
</svg>
