<?xml version="1.0" encoding="utf-8"?>
<!-- Uploaded to SVGRepo https://www.svgrepo.com -->
<svg version="1.2" baseProfile="tiny" id="_x31_" xmlns="http://www.w3.org/2000/svg" xmlns:xlink="http://www.w3.org/1999/xlink"
	 x="0px" y="0px" viewBox="-63 65 128 128" xml:space="preserve">
<path  d="M38.7,87.6c-3.6,5.1-10.6,6.3-15.7,2.8s-6.3-10.6-2.8-15.7c3.6-5.1,10.6-6.3,15.7-2.8S42.3,82.5,38.7,87.6z M64.1,100.1
	l-13.2,19c-1.5,2.3-4.6,2.8-6.9,1.3l-19-13.2L4.7,137.3L22,149.4c1.5,1,2.7,2.7,3,4.5l4.9,27.7c0.6,3.8-2,7.5-5.8,8.2
	c-3.8,0.6-7.5-2-8.2-5.8l-4.4-24.9l-21.8-15.5c0,0-11.5,16.6-12.3,17.6s-1.5,2.4-2.8,3.1c-1.7,1-3.7,1.1-5.4,0.7l-27.2-7.3
	c-3.7-1-5.9-4.8-4.9-8.6c1-3.7,4.8-5.9,8.6-4.9l22.3,5.9L3.6,98.4h-13.7l-11.7,16.8c-1.5,2.3-4.6,2.8-6.9,1.3
	c-2.3-1.5-2.8-4.6-1.3-6.9l13.2-18.9c1-1.5,2.7-2.3,4.4-2.1h22.8c3.4,0,6.8,1,9.7,3.1l7.3,5.2l18,12.7L56,94.6
	c1.5-2.3,4.6-2.8,6.9-1.3S65.7,98,64.1,100.1z"/>
</svg>
