<?xml version="1.0" encoding="UTF-8"?>
<!DOCTYPE svg PUBLIC "-//W3C//DTD SVG 1.1//EN" "http://www.w3.org/Graphics/SVG/1.1/DTD/svg11.dtd">
<svg xmlns="http://www.w3.org/2000/svg" version="1.1" width="500px" height="500px" style="shape-rendering:geometricPrecision; text-rendering:geometricPrecision; image-rendering:optimizeQuality; fill-rule:evenodd; clip-rule:evenodd" xmlns:xlink="http://www.w3.org/1999/xlink">
<g><path style="opacity:1"  d="M 405.5,-0.5 C 436.833,-0.5 468.167,-0.5 499.5,-0.5C 499.5,30.8333 499.5,62.1667 499.5,93.5C 489.167,93.5 478.833,93.5 468.5,93.5C 468.5,103.833 468.5,114.167 468.5,124.5C 457.833,124.5 447.167,124.5 436.5,124.5C 436.5,134.833 436.5,145.167 436.5,155.5C 426.167,155.5 415.833,155.5 405.5,155.5C 405.5,165.833 405.5,176.167 405.5,186.5C 395.167,186.5 384.833,186.5 374.5,186.5C 374.5,197.167 374.5,207.833 374.5,218.5C 364.167,218.5 353.833,218.5 343.5,218.5C 343.5,228.833 343.5,239.167 343.5,249.5C 332.833,249.5 322.167,249.5 311.5,249.5C 311.5,259.833 311.5,270.167 311.5,280.5C 301.167,280.5 290.833,280.5 280.5,280.5C 280.5,290.833 280.5,301.167 280.5,311.5C 270.167,311.5 259.833,311.5 249.5,311.5C 249.5,322.167 249.5,332.833 249.5,343.5C 259.833,343.5 270.167,343.5 280.5,343.5C 280.5,353.833 280.5,364.167 280.5,374.5C 290.833,374.5 301.167,374.5 311.5,374.5C 311.5,395.167 311.5,415.833 311.5,436.5C 290.833,436.5 270.167,436.5 249.5,436.5C 249.5,426.167 249.5,415.833 249.5,405.5C 228.5,405.5 207.5,405.5 186.5,405.5C 186.5,395.167 186.5,384.833 186.5,374.5C 176.167,374.5 165.833,374.5 155.5,374.5C 155.5,384.833 155.5,395.167 155.5,405.5C 145.167,405.5 134.833,405.5 124.5,405.5C 124.5,415.833 124.5,426.167 124.5,436.5C 114.167,436.5 103.833,436.5 93.5,436.5C 93.5,457.5 93.5,478.5 93.5,499.5C 62.1667,499.5 30.8333,499.5 -0.5,499.5C -0.5,468.167 -0.5,436.833 -0.5,405.5C 20.1667,405.5 40.8333,405.5 61.5,405.5C 61.5,395.167 61.5,384.833 61.5,374.5C 72.1667,374.5 82.8333,374.5 93.5,374.5C 93.5,364.167 93.5,353.833 93.5,343.5C 103.833,343.5 114.167,343.5 124.5,343.5C 124.5,332.833 124.5,322.167 124.5,311.5C 114.167,311.5 103.833,311.5 93.5,311.5C 93.5,290.833 93.5,270.167 93.5,249.5C 82.8333,249.5 72.1667,249.5 61.5,249.5C 61.5,228.5 61.5,207.5 61.5,186.5C 82.5,186.5 103.5,186.5 124.5,186.5C 124.5,197.167 124.5,207.833 124.5,218.5C 134.833,218.5 145.167,218.5 155.5,218.5C 155.5,228.833 155.5,239.167 155.5,249.5C 165.833,249.5 176.167,249.5 186.5,249.5C 186.5,239.167 186.5,228.833 186.5,218.5C 197.167,218.5 207.833,218.5 218.5,218.5C 218.5,207.833 218.5,197.167 218.5,186.5C 228.833,186.5 239.167,186.5 249.5,186.5C 249.5,176.167 249.5,165.833 249.5,155.5C 259.833,155.5 270.167,155.5 280.5,155.5C 280.5,145.167 280.5,134.833 280.5,124.5C 290.833,124.5 301.167,124.5 311.5,124.5C 311.5,114.167 311.5,103.833 311.5,93.5C 322.167,93.5 332.833,93.5 343.5,93.5C 343.5,82.8333 343.5,72.1667 343.5,61.5C 353.833,61.5 364.167,61.5 374.5,61.5C 374.5,51.1667 374.5,40.8333 374.5,30.5C 384.833,30.5 395.167,30.5 405.5,30.5C 405.5,20.1667 405.5,9.83333 405.5,-0.5 Z"/></g>
</svg>
