<svg width="30" height="22" viewBox="0 0 30 22"  xmlns="http://www.w3.org/2000/svg">
<path d="M28.8307 2.25575C27.7478 0.968456 25.7484 0.443359 21.9301 0.443359H8.06961C4.1639 0.443359 2.13068 1.00233 1.05184 2.37284C0 3.7091 0 5.67797 0 8.40294V13.5967C0 18.8758 1.248 21.5562 8.06961 21.5562H21.9302C25.2414 21.5562 27.0763 21.0928 28.2633 19.9568C29.4806 18.7918 30 16.8897 30 13.5967V8.40294C30 5.52923 29.9186 3.54875 28.8307 2.25575ZM19.2601 11.7169L12.9661 15.0063C12.8254 15.0799 12.6715 15.1164 12.5178 15.1164C12.3438 15.1164 12.1702 15.0695 12.0165 14.9764C11.7269 14.801 11.5501 14.4871 11.5501 14.1486V7.59081C11.5501 7.25288 11.7264 6.93933 12.0154 6.76378C12.3045 6.58823 12.664 6.57623 12.9639 6.73204L19.2579 10.0003C19.5781 10.1666 19.7792 10.4971 19.7797 10.8578C19.7801 11.2188 19.5798 11.5498 19.2601 11.7169Z" />
</svg>
